<svg width="34" height="34" viewBox="0 0 34 34" fill="none" xmlns="http://www.w3.org/2000/svg">
<rect x="0.25" y="0.5" width="33" height="33" rx="16.5" fill="#FFD0A5"/>
<path d="M16.75 15.5C16.1196 15.5002 15.5104 15.7273 15.0336 16.1397C14.5568 16.552 14.2444 17.1222 14.1534 17.746C14.0624 18.3698 14.1989 19.0055 14.5379 19.5369C14.877 20.0683 15.396 20.46 16 20.6403V22.25C16 22.4489 16.079 22.6397 16.2197 22.7803C16.3603 22.921 16.5511 23 16.75 23C16.9489 23 17.1397 22.921 17.2803 22.7803C17.421 22.6397 17.5 22.4489 17.5 22.25V20.6403C18.104 20.46 18.623 20.0683 18.9621 19.5369C19.3011 19.0055 19.4376 18.3698 19.3466 17.746C19.2556 17.1222 18.9432 16.552 18.4664 16.1397C17.9896 15.7273 17.3804 15.5002 16.75 15.5ZM16.75 19.25C16.5275 19.25 16.31 19.184 16.125 19.0604C15.94 18.9368 15.7958 18.7611 15.7106 18.5555C15.6255 18.35 15.6032 18.1238 15.6466 17.9055C15.69 17.6873 15.7972 17.4868 15.9545 17.3295C16.1118 17.1722 16.3123 17.065 16.5305 17.0216C16.7488 16.9782 16.975 17.0005 17.1805 17.0856C17.3861 17.1708 17.5618 17.315 17.6854 17.5C17.809 17.685 17.875 17.9025 17.875 18.125C17.875 18.4234 17.7565 18.7095 17.5455 18.9205C17.3345 19.1315 17.0484 19.25 16.75 19.25ZM24.25 12.5H21.25V10.25C21.25 9.05653 20.7759 7.91193 19.932 7.06802C19.0881 6.22411 17.9435 5.75 16.75 5.75C15.5565 5.75 14.4119 6.22411 13.568 7.06802C12.7241 7.91193 12.25 9.05653 12.25 10.25V12.5H9.25C8.85218 12.5 8.47064 12.658 8.18934 12.9393C7.90804 13.2206 7.75 13.6022 7.75 14V24.5C7.75 24.8978 7.90804 25.2794 8.18934 25.5607C8.47064 25.842 8.85218 26 9.25 26H24.25C24.6478 26 25.0294 25.842 25.3107 25.5607C25.592 25.2794 25.75 24.8978 25.75 24.5V14C25.75 13.6022 25.592 13.2206 25.3107 12.9393C25.0294 12.658 24.6478 12.5 24.25 12.5ZM13.75 10.25C13.75 9.45435 14.0661 8.69129 14.6287 8.12868C15.1913 7.56607 15.9544 7.25 16.75 7.25C17.5456 7.25 18.3087 7.56607 18.8713 8.12868C19.4339 8.69129 19.75 9.45435 19.75 10.25V12.5H13.75V10.25ZM24.25 24.5H9.25V14H24.25V24.5Z" fill="#EB5241"/>
</svg>
